<svg aria-hidden="true" style="position: absolute; width: 0; height: 0; overflow: hidden;" version="1.1" xmlns="http://www.w3.org/2000/svg" xmlns:xlink="http://www.w3.org/1999/xlink">
<defs>
<symbol id="icon-user" viewBox="0 0 20 28">
<path d="M20 21.859c0 2.281-1.5 4.141-3.328 4.141h-13.344c-1.828 0-3.328-1.859-3.328-4.141 0-4.109 1.016-8.859 5.109-8.859 1.266 1.234 2.984 2 4.891 2s3.625-0.766 4.891-2c4.094 0 5.109 4.75 5.109 8.859zM16 8c0 3.313-2.688 6-6 6s-6-2.688-6-6 2.688-6 6-6 6 2.688 6 6z"></path>
</symbol>
<symbol id="icon-random" viewBox="0 0 28 28">
<path d="M10.406 7.516c-0.875 1.344-1.516 2.797-2.141 4.266-0.906-1.891-1.906-3.781-4.266-3.781h-3.5c-0.281 0-0.5-0.219-0.5-0.5v-3c0-0.281 0.219-0.5 0.5-0.5h3.5c2.781 0 4.828 1.297 6.406 3.516zM28 20c0 0.125-0.047 0.266-0.141 0.359l-5 5c-0.094 0.094-0.234 0.141-0.359 0.141-0.266 0-0.5-0.234-0.5-0.5v-3c-4.641 0-7.5 0.547-10.391-3.516 0.859-1.344 1.5-2.797 2.125-4.266 0.906 1.891 1.906 3.781 4.266 3.781h4v-3c0-0.281 0.219-0.5 0.5-0.5 0.141 0 0.266 0.063 0.375 0.156l4.984 4.984c0.094 0.094 0.141 0.234 0.141 0.359zM28 6c0 0.125-0.047 0.266-0.141 0.359l-5 5c-0.094 0.094-0.234 0.141-0.359 0.141-0.266 0-0.5-0.219-0.5-0.5v-3h-4c-2.078 0-3.063 1.422-3.938 3.109-0.453 0.875-0.844 1.781-1.219 2.672-1.734 4.031-3.766 8.219-8.844 8.219h-3.5c-0.281 0-0.5-0.219-0.5-0.5v-3c0-0.281 0.219-0.5 0.5-0.5h3.5c2.078 0 3.063-1.422 3.938-3.109 0.453-0.875 0.844-1.781 1.219-2.672 1.734-4.031 3.766-8.219 8.844-8.219h4v-3c0-0.281 0.219-0.5 0.5-0.5 0.141 0 0.266 0.063 0.375 0.156l4.984 4.984c0.094 0.094 0.141 0.234 0.141 0.359z"></path>
</symbol>
<symbol id="icon-bullseye" viewBox="0 0 24 28">
<path d="M16 14c0 2.203-1.797 4-4 4s-4-1.797-4-4 1.797-4 4-4 4 1.797 4 4zM18 14c0-3.313-2.688-6-6-6s-6 2.688-6 6 2.688 6 6 6 6-2.688 6-6zM20 14c0 4.422-3.578 8-8 8s-8-3.578-8-8 3.578-8 8-8 8 3.578 8 8zM22 14c0-5.516-4.484-10-10-10s-10 4.484-10 10 4.484 10 10 10 10-4.484 10-10zM24 14c0 6.625-5.375 12-12 12s-12-5.375-12-12 5.375-12 12-12 12 5.375 12 12z"></path>
</symbol>
<symbol id="icon-thumbs-up" viewBox="0 0 25 28">
<path d="M4 21c0-0.547-0.453-1-1-1-0.562 0-1 0.453-1 1 0 0.562 0.438 1 1 1 0.547 0 1-0.438 1-1zM6.5 13v10c0 0.547-0.453 1-1 1h-4.5c-0.547 0-1-0.453-1-1v-10c0-0.547 0.453-1 1-1h4.5c0.547 0 1 0.453 1 1zM25 13c0 0.828-0.328 1.719-0.859 2.328 0.172 0.5 0.234 0.969 0.234 1.188 0.031 0.781-0.203 1.516-0.672 2.141 0.172 0.578 0.172 1.203 0 1.828-0.156 0.578-0.453 1.094-0.844 1.469 0.094 1.172-0.172 2.125-0.766 2.828-0.672 0.797-1.703 1.203-3.078 1.219h-2.016c-2.234 0-4.344-0.734-6.031-1.313-0.984-0.344-1.922-0.672-2.469-0.688-0.531-0.016-1-0.453-1-1v-10.016c0-0.516 0.438-0.953 0.953-1 0.578-0.047 2.078-1.906 2.766-2.812 0.562-0.719 1.094-1.391 1.578-1.875 0.609-0.609 0.781-1.547 0.969-2.453 0.172-0.922 0.359-1.891 1.031-2.547 0.187-0.187 0.438-0.297 0.703-0.297 3.5 0 3.5 2.797 3.5 4 0 1.281-0.453 2.188-0.875 3-0.172 0.344-0.328 0.5-0.453 1h4.328c1.625 0 3 1.375 3 3z"></path>
</symbol>
<symbol id="icon-circle-o-notch" viewBox="0 0 28 28">
<path d="M27.5 14c0 7.453-6.047 13.5-13.5 13.5s-13.5-6.047-13.5-13.5c0-6.781 5-12.391 11.5-13.359v3.563c-4.562 0.922-8 4.969-8 9.797 0 5.516 4.484 10 10 10s10-4.484 10-10c0-4.828-3.437-8.875-8-9.797v-3.563c6.5 0.969 11.5 6.578 11.5 13.359z"></path>
</symbol>
<symbol id="icon-handshake-o" viewBox="0 0 36 28">
<path d="M3 18c1.313 0 1.313-2 0-2s-1.313 2 0 2zM26.016 17.094c-1.234-1.609-2.438-3.25-3.844-4.719l-1.953 2.188c-1.719 1.953-4.797 1.906-6.469-0.094-1.188-1.437-1.188-3.5 0.031-4.922l2.766-3.219c-0.969-0.5-2.141-0.328-3.187-0.328-0.922 0-1.813 0.375-2.469 1.031l-2.469 2.469h-2.422v8.5c0.688 0 1.312-0.094 1.859 0.438l4.641 4.562c0.953 0.922 2.187 1.734 3.547 1.734 0.703 0 1.453-0.234 1.953-0.734 1.172 0.406 2.531-0.25 2.891-1.453 0.75 0.063 1.437-0.172 1.984-0.688 0.359-0.328 0.828-0.984 0.781-1.5 0.141 0.141 0.484 0.156 0.672 0.156 1.859 0 2.828-1.953 1.687-3.422zM28.5 18h1.5v-8h-1.453l-2.453-2.812c-0.656-0.75-1.641-1.188-2.641-1.188h-2.609c-0.875 0-1.719 0.391-2.281 1.047l-3.266 3.797c-0.578 0.688-0.578 1.656-0.016 2.344 0.891 1.062 2.531 1.078 3.453 0.047l3.016-3.406c0.719-0.797 2.031-0.047 1.703 0.969 0.594 0.688 1.234 1.359 1.813 2.047 0.781 0.969 1.531 1.984 2.297 2.969 0.484 0.625 0.844 1.375 0.938 2.188zM33 18c1.313 0 1.313-2 0-2s-1.313 2 0 2zM36 9v10c0 0.547-0.453 1-1 1h-6.781c-0.562 1.359-1.797 2.266-3.234 2.469-0.672 0.984-1.703 1.734-2.859 1.984-0.859 1.094-2.25 1.75-3.641 1.656-2.578 1.453-5.484 0.187-7.406-1.703l-4.484-4.406h-5.594c-0.547 0-1-0.453-1-1v-10.5c0-0.547 0.453-1 1-1h6.578c1.813-1.813 3.062-3.5 5.781-3.5h1.828c1.016 0 2 0.313 2.828 0.875 0.828-0.562 1.813-0.875 2.828-0.875h2.609c2.969 0 4.203 1.937 6 4h5.547c0.547 0 1 0.453 1 1z"></path>
</symbol>
<symbol id="icon-gps_not_fixed" viewBox="0 0 24 24">
<path d="M12 18.984q2.906 0 4.945-2.039t2.039-4.945-2.039-4.945-4.945-2.039-4.945 2.039-2.039 4.945 2.039 4.945 4.945 2.039zM20.953 11.016h2.063v1.969h-2.063q-0.328 2.953-2.672 5.297t-5.297 2.672v2.063h-1.969v-2.063q-2.953-0.328-5.297-2.672t-2.672-5.297h-2.063v-1.969h2.063q0.328-2.953 2.672-5.297t5.297-2.672v-2.063h1.969v2.063q2.953 0.328 5.297 2.672t2.672 5.297z"></path>
</symbol>
<symbol id="icon-menu" viewBox="0 0 24 24">
<path d="M3 6h18v2.016h-18v-2.016zM3 12.984v-1.969h18v1.969h-18zM3 18v-2.016h18v2.016h-18z"></path>
</symbol>
<symbol id="icon-thumbs_up_down" viewBox="0 0 24 24">
<path d="M22.5 9.984q0.656 0 1.078 0.445t0.422 1.055v6.516q0 0.656-0.422 1.078l-4.969 4.922-0.797-0.797q-0.328-0.328-0.328-0.797 0.141-0.656 0.398-1.875t0.305-1.547h-5.203q-0.422 0-0.703-0.281t-0.281-0.703v-1.266q0-0.141 0.094-0.516l2.297-5.297q0.422-0.938 1.359-0.938h6.75zM12 6v1.266q0 0.141-0.094 0.516l-2.297 5.297q-0.422 0.938-1.359 0.938h-6.75q-0.656 0-1.078-0.445t-0.422-1.055v-6.516q0-0.656 0.422-1.078l4.969-4.922 0.797 0.797q0.328 0.328 0.328 0.797-0.141 0.656-0.398 1.875t-0.305 1.547h5.203q0.422 0 0.703 0.281t0.281 0.703z"></path>
</symbol>
<symbol id="icon-profile" viewBox="0 0 32 32">
<path d="M27 0h-24c-1.65 0-3 1.35-3 3v26c0 1.65 1.35 3 3 3h24c1.65 0 3-1.35 3-3v-26c0-1.65-1.35-3-3-3zM26 28h-22v-24h22v24zM8 18h14v2h-14zM8 22h14v2h-14zM10 9c0-1.657 1.343-3 3-3s3 1.343 3 3c0 1.657-1.343 3-3 3s-3-1.343-3-3zM15 12h-4c-1.65 0-3 0.9-3 2v2h10v-2c0-1.1-1.35-2-3-2z"></path>
</symbol>
</defs>
</svg>
