<?xml version="1.0" standalone="no"?>
<!DOCTYPE svg PUBLIC "-//W3C//DTD SVG 20010904//EN"
 "http://www.w3.org/TR/2001/REC-SVG-20010904/DTD/svg10.dtd">
<svg version="1.0" xmlns="http://www.w3.org/2000/svg"
 width="939.000000pt" height="705.000000pt" viewBox="0 0 939.000000 705.000000"
 preserveAspectRatio="xMidYMid meet">
<metadata>
Created by potrace 1.16, written by Peter Selinger 2001-2019
</metadata>
<g transform="translate(0.000000,705.000000) scale(0.100000,-0.100000)"
fill="#000000" stroke="none">
<path d="M6700 6783 c-85 -24 -558 -159 -1050 -299 -492 -140 -1001 -286
-1130 -324 -129 -38 -293 -85 -365 -105 -71 -20 -166 -47 -210 -60 -44 -13
-262 -76 -485 -140 -223 -64 -414 -120 -425 -125 -11 -6 -200 -62 -420 -125
-415 -120 -432 -125 -503 -156 -24 -11 -66 -25 -95 -31 -29 -6 -55 -14 -59
-17 -4 -3 -1 -19 7 -36 7 -16 16 -43 20 -58 3 -17 11 -27 18 -24 7 2 113 34
237 71 124 37 281 85 350 106 69 22 154 48 190 59 36 11 124 40 195 64 72 25
294 91 495 147 201 56 410 114 465 130 55 16 206 59 335 95 129 37 314 89 410
116 96 27 188 52 205 55 16 3 53 11 80 19 28 8 95 28 150 44 55 16 170 48 255
71 85 23 225 62 310 87 85 24 193 55 240 68 47 12 225 62 395 109 171 48 358
100 416 117 58 16 113 29 121 29 9 0 35 -11 59 -24 24 -13 166 -88 314 -166
298 -158 620 -333 800 -435 65 -37 156 -88 204 -115 47 -26 211 -120 364 -209
154 -89 280 -161 282 -159 2 2 4 38 6 82 l4 78 -95 55 c-52 31 -113 66 -135
78 -22 12 -224 125 -450 251 -955 536 -1302 724 -1330 723 -11 -1 -90 -21
-175 -46z"/>
<path d="M7222 6084 c-16 -11 -21 -21 -16 -39 5 -19 0 -27 -25 -40 -17 -8 -31
-19 -31 -24 0 -4 -31 -28 -70 -52 -38 -24 -70 -48 -70 -54 0 -5 -32 -28 -70
-50 -38 -22 -70 -44 -70 -50 0 -5 -34 -29 -74 -53 -41 -23 -76 -48 -79 -55 -2
-7 -36 -30 -76 -52 -39 -22 -71 -45 -71 -51 0 -6 -34 -30 -75 -53 -41 -24 -75
-47 -75 -51 0 -4 8 -17 18 -28 17 -21 19 -19 212 119 107 77 233 168 280 203
156 116 305 219 322 224 10 2 39 -11 65 -30 26 -19 100 -70 163 -113 63 -43
117 -82 120 -85 3 -4 46 -34 95 -67 163 -108 289 -196 351 -245 65 -51 79 -56
87 -35 7 20 -22 51 -76 82 -27 15 -51 34 -54 41 -3 8 -33 30 -67 50 -33 21
-72 47 -86 59 -14 13 -55 42 -92 65 -38 23 -68 45 -68 50 0 5 -35 29 -78 53
-43 25 -84 53 -92 62 -7 9 -44 34 -82 57 -37 22 -68 44 -68 49 0 5 -19 18 -42
30 -54 27 -52 24 -40 45 8 14 5 22 -13 36 -28 22 -25 22 -53 2z"/>
<path d="M7708 5153 c-13 -13 -33 -16 -93 -14 -43 1 -75 -1 -72 -6 3 -4 -55
-8 -129 -7 -77 0 -134 -3 -134 -9 0 -5 -32 -6 -80 -2 -56 5 -80 4 -80 -4 0 -6
-17 -11 -40 -11 -22 0 -40 5 -40 10 0 6 -21 11 -47 11 -27 0 -88 3 -138 7
-168 14 -162 27 -146 -321 6 -144 11 -290 11 -324 l0 -63 -59 0 c-44 0 -65 -5
-82 -20 l-24 -20 30 7 c47 12 120 9 139 -6 9 -7 16 -26 16 -42 l0 -29 -100 0
c-81 0 -100 -3 -100 -15 0 -14 -9 -38 -51 -133 -20 -44 -27 -134 -9 -116 5 5
22 41 38 79 l29 70 414 -3 c228 -2 533 -7 679 -13 146 -5 291 -6 322 -3 57 6
289 -6 256 -13 -10 -3 -18 -9 -18 -14 0 -14 8 -11 40 13 26 19 30 28 30 68 l0
47 -61 7 c-34 3 -133 6 -220 6 l-158 0 -5 33 c-15 95 -21 247 -12 291 6 34 6
54 -2 67 -17 26 -15 49 4 49 8 0 13 4 10 8 -3 5 -8 71 -11 148 -3 76 -8 151
-11 166 -3 14 0 29 6 33 15 9 2 25 -15 18 -17 -6 -21 12 -5 22 18 11 10 26
-10 20 -14 -5 -20 -2 -20 9 0 21 -31 20 -52 -1z"/>
<path d="M5037 5114 c-4 -4 -168 -8 -365 -7 -196 0 -319 -3 -272 -7 84 -6 84
-6 -44 -8 -72 -1 -155 3 -186 10 -50 10 -135 3 -102 -9 25 -10 11 -32 -30 -45
-44 -15 -73 -14 -62 3 3 5 -1 9 -8 10 -7 1 -2 5 12 9 14 4 -48 7 -140 6 -91 0
-149 -3 -130 -6 26 -4 31 -7 18 -12 -33 -14 -18 -26 47 -38 53 -10 65 -16 65
-31 0 -11 7 -19 15 -19 11 0 15 -12 15 -49 0 -42 -4 -51 -30 -71 -20 -15 -28
-29 -25 -40 4 -12 -5 -27 -25 -43 -34 -29 -37 -37 -15 -37 10 0 17 -14 21 -40
7 -41 11 -44 67 -40 25 1 27 -1 27 -37 0 -31 -5 -40 -25 -50 -14 -6 -25 -7
-25 -2 0 5 -7 9 -15 9 -11 0 -15 -11 -15 -43 0 -44 -22 -76 -62 -90 -10 -4
-18 -11 -18 -18 0 -6 -15 -29 -34 -51 -30 -35 -41 -41 -83 -44 -26 -2 -73 -6
-103 -8 -166 -14 -420 -18 -420 -7 0 6 -15 32 -32 58 -40 59 -52 78 -77 124
-11 19 -27 41 -35 48 -9 8 -16 18 -16 23 0 5 -17 35 -39 66 -21 31 -58 93 -81
137 -38 73 -75 132 -90 145 -3 3 -5 11 -5 19 0 8 -6 16 -13 19 -7 2 -10 -2 -6
-12 5 -12 2 -15 -11 -10 -13 6 -16 2 -13 -21 2 -16 9 -31 17 -33 10 -3 12 0 7
14 -4 10 -4 15 1 11 4 -5 8 -23 9 -42 0 -21 18 -60 48 -107 56 -88 54 -85 138
-217 37 -58 71 -111 75 -117 12 -16 30 -45 52 -86 14 -26 17 -38 8 -38 -23 0
-202 -29 -282 -45 -52 -11 -96 -27 -125 -47 -25 -17 -36 -27 -25 -24 47 14
243 46 338 56 380 38 1295 54 1737 30 379 -20 685 -73 895 -153 92 -35 105
-37 105 -12 0 18 -25 32 -130 70 l-85 30 -6 300 c-4 165 -7 311 -8 325 0 13
-12 34 -25 45 -18 15 -24 29 -21 50 1 16 -3 38 -10 50 -7 11 -11 36 -9 55 2
19 -2 47 -8 63 -10 27 -11 27 -108 27 -53 0 -124 3 -156 6 -32 3 -63 2 -67 -2z"/>
<path d="M9358 4884 c-4 -6 -3 -28 3 -48 15 -54 4 -69 -12 -16 -15 52 -23 60
-64 60 -26 -1 -28 -2 -14 -13 21 -16 44 -80 26 -74 -6 2 -16 17 -22 33 -9 26
-35 64 -35 51 0 -3 9 -26 20 -51 24 -56 12 -60 -19 -6 -30 53 -48 63 -22 11
29 -56 26 -67 -9 -29 -16 18 -30 27 -30 21 0 -9 -16 -13 -47 -13 -31 0 -43 -3
-35 -9 29 -18 -96 -2 -130 16 -5 2 -8 2 -8 -1 0 -3 12 -11 26 -19 24 -12 25
-15 10 -29 -13 -14 -14 -18 -1 -28 8 -7 25 -13 39 -14 14 0 22 -6 19 -13 -3
-7 2 -13 12 -13 9 0 13 5 10 10 -3 6 -1 10 5 10 18 0 50 -20 50 -31 0 -6 -7
-6 -19 1 -25 13 -34 13 -26 0 8 -13 -25 -1 -46 16 -8 8 -30 17 -48 20 -25 5
-31 11 -29 28 2 14 -3 21 -17 23 l-20 3 20 -9 c16 -8 9 -10 -29 -10 l-49 -1 5
-63 c4 -45 2 -66 -8 -75 -8 -7 -14 -18 -14 -24 0 -11 12 -9 81 17 35 14 56 16
95 9 l49 -8 -50 -7 c-27 -3 -40 -7 -28 -7 32 -3 39 -22 9 -22 -14 0 -26 -4
-26 -10 0 -12 -2 -12 38 -1 20 6 30 6 27 0 -4 -5 -14 -9 -23 -9 -9 -1 -28 -7
-42 -15 l-25 -14 35 -1 c28 -1 31 -3 15 -9 -11 -4 -37 -11 -58 -14 -33 -5 -37
-4 -26 9 10 12 9 13 -5 8 -15 -6 -36 -34 -36 -49 0 -3 12 1 28 8 15 8 50 17
77 19 48 5 49 5 20 -8 -16 -7 -26 -13 -21 -14 6 0 -5 -16 -24 -35 -31 -32 -32
-37 -22 -62 10 -23 10 -25 0 -13 -7 8 -20 14 -28 14 -8 -1 -21 -2 -29 -3 -9
-1 -11 -9 -7 -27 5 -17 3 -23 -4 -19 -5 3 -10 12 -10 19 0 8 -10 16 -22 20
-33 8 -40 7 -33 -4 3 -5 2 -10 -4 -10 -5 0 -11 5 -13 12 -3 7 -9 8 -19 3 -8
-5 -24 -8 -36 -6 -19 2 -22 -1 -16 -16 6 -16 5 -16 -10 -5 -19 16 -39 8 -30
-13 3 -8 1 -15 -5 -15 -6 0 -12 4 -14 10 -5 15 -88 -32 -88 -49 0 -13 -2 -14
-9 -2 -7 11 -10 9 -16 -8 -3 -11 -13 -21 -21 -21 -8 0 -14 -7 -14 -16 0 -8 -4
-12 -10 -9 -5 3 -10 3 -10 -2 0 -14 14 -29 34 -36 10 -4 16 -10 13 -14 -4 -3
-17 1 -31 10 -22 15 -25 15 -40 -2 -9 -10 -16 -22 -16 -27 0 -5 4 -3 9 5 6 9
9 5 9 -14 0 -15 -4 -22 -7 -16 -5 7 -15 3 -31 -14 -13 -14 -18 -25 -11 -25 8
0 9 -5 1 -19 -5 -11 -10 -37 -9 -58 0 -31 2 -35 10 -18 7 15 8 12 4 -15 -9
-55 -9 -102 -1 -140 18 -84 55 -158 57 -113 0 13 2 14 5 3 14 -43 38 -90 46
-90 4 0 8 10 8 23 0 12 4 28 9 36 7 11 12 7 20 -20 9 -30 9 -28 3 16 -13 92
-8 217 10 250 24 44 58 78 101 103 41 24 102 39 93 23 -4 -5 -2 -12 3 -16 5
-3 13 1 18 9 5 9 28 15 57 17 41 3 50 0 56 -16 9 -25 40 -29 40 -4 0 14 7 19
29 19 26 0 30 -4 39 -47 8 -41 10 -43 11 -16 1 44 10 63 30 64 12 0 12 2 -4 9
-17 7 -15 9 13 9 30 1 32 -1 27 -26 -3 -16 -2 -22 1 -15 9 19 44 15 44 -5 1
-17 1 -17 10 -1 6 9 18 14 28 11 20 -5 48 -43 32 -43 -5 0 -10 -4 -10 -9 0 -4
11 -6 25 -3 14 2 25 2 25 -2 0 -6 -56 -38 -85 -47 -17 -6 -17 -7 -2 -8 9 -1
17 -6 17 -12 0 -5 5 -7 10 -4 16 10 7 -16 -12 -37 -10 -10 -24 -18 -30 -19 -7
0 11 -6 40 -12 29 -7 53 -16 52 -21 -1 -5 4 -13 12 -18 10 -7 10 -11 1 -15 -7
-2 -13 -9 -13 -14 0 -6 5 -7 12 -3 7 4 8 3 4 -4 -4 -7 -14 -12 -22 -12 -8 0
-13 -4 -9 -9 3 -5 -4 -12 -15 -16 -11 -3 -20 -12 -21 -18 0 -7 -4 -3 -9 8 -7
17 -9 17 -9 3 -1 -10 -4 -17 -8 -17 -5 1 -17 1 -28 -1 -19 -1 -19 -2 -2 -9 22
-8 24 -21 5 -32 -9 -6 -1 -9 22 -10 56 -2 80 -6 87 -13 3 -3 -7 -6 -23 -6 -23
0 -26 -2 -14 -11 11 -8 7 -9 -17 -5 -18 3 -35 2 -37 -3 -7 -11 41 -21 103 -22
l46 -1 -45 -13 -45 -13 40 -2 40 -2 -37 -10 c-62 -16 -43 -27 34 -21 53 5 69
3 64 -5 -4 -7 -1 -12 6 -12 7 -1 3 -9 -10 -20 -12 -10 -18 -21 -14 -24 13 -8
2 -56 -11 -53 -13 3 -71 -107 -65 -124 3 -8 10 0 18 18 8 17 17 30 21 27 4 -2
7 8 7 22 0 13 2 28 6 31 9 10 37 -19 32 -33 -3 -8 0 -11 10 -7 7 3 14 13 14
22 0 14 2 14 10 1 6 -10 10 69 10 234 0 229 -1 247 -16 235 -15 -12 -16 -11
-9 11 4 14 11 30 16 36 5 6 8 224 8 484 0 260 -4 467 -9 460 -6 -9 -9 -6 -12
11 -2 14 -6 19 -10 13z m-114 -283 c15 -13 14 -16 -10 -32 -15 -9 -33 -15 -39
-12 -7 2 -16 -1 -20 -7 -4 -6 -18 -15 -31 -20 -15 -6 -24 -18 -24 -32 -1 -21
-2 -21 -11 -5 -5 9 -14 17 -19 17 -9 0 -22 -33 -25 -62 -2 -24 -7 -28 -52 -43
-26 -9 -42 -10 -50 -3 -19 15 -16 24 11 41 22 15 24 15 22 -1 -2 -9 -8 -17
-14 -17 -16 0 -25 -12 -14 -19 5 -3 15 1 22 9 7 8 20 15 29 15 14 0 14 2 1 11
-12 8 -10 10 10 5 24 -5 24 -4 6 9 -18 14 -18 15 -2 15 9 0 15 4 11 9 -3 5 0
13 6 17 8 4 7 9 -2 15 -11 7 -9 9 6 9 17 0 17 2 5 10 -12 8 -12 10 5 11 l20 0
-20 9 c-19 8 -19 9 3 9 12 1 22 7 22 14 0 35 120 56 154 28z"/>
<path d="M3755 4191 c-63 -4 -89 -10 -88 -18 2 -7 -4 -10 -12 -7 -9 4 -15 0
-15 -10 0 -9 -8 -16 -20 -16 -11 0 -19 3 -19 8 5 32 -3 42 -33 42 -25 0 -29
-3 -18 -10 13 -8 12 -10 -4 -10 -18 0 -18 -1 2 -18 18 -16 19 -21 8 -43 -9
-17 -10 -33 -3 -52 5 -15 7 -30 4 -33 -2 -3 6 -26 18 -52 l23 -47 -29 -8 c-23
-6 -29 -13 -29 -35 0 -15 7 -36 15 -46 8 -11 15 -14 15 -8 0 7 8 12 18 13 14
0 14 2 -3 8 -11 5 -24 6 -28 4 -5 -3 -7 5 -5 18 2 19 9 24 33 24 26 0 30 -4
33 -32 2 -17 -4 -46 -13 -62 -12 -25 -22 -31 -47 -31 -24 0 -29 -3 -21 -11 17
-17 78 -3 80 19 1 9 6 30 13 46 l11 29 29 -47 c18 -27 30 -60 30 -80 0 -50
-48 -84 -95 -66 -15 6 -25 6 -25 0 0 -5 9 -11 19 -15 14 -4 21 -17 24 -43 l4
-37 2 35 c1 29 7 38 34 50 17 8 38 28 45 43 14 28 10 48 -26 129 -2 5 7 8 21
8 24 0 37 16 37 46 0 21 -17 17 -23 -6 -7 -26 -43 -26 -57 -1 -11 21 5 71 22
71 5 0 7 4 3 9 -10 16 34 34 50 21 13 -11 10 -40 -3 -38 -4 0 -14 0 -22 -1
-12 -1 -12 -4 2 -17 22 -22 46 -11 63 28 12 28 14 30 15 10 0 -15 4 -21 12
-16 7 4 8 3 4 -5 -4 -6 -12 -9 -17 -6 -8 5 -1 -54 7 -64 2 -2 -2 -11 -10 -20
-7 -9 -17 -26 -20 -37 -9 -29 47 -58 78 -41 37 21 49 38 48 68 0 16 1 29 4 29
2 0 18 -27 34 -61 l31 -60 -19 -32 c-24 -43 -62 -56 -96 -33 -17 11 -26 25
-26 43 0 20 -3 24 -11 16 -15 -15 9 -64 40 -79 15 -8 25 -23 27 -39 4 -39 14
-44 14 -7 0 27 6 34 34 46 28 12 36 22 42 52 6 34 4 48 -21 107 -5 11 -3 17 7
17 26 0 51 37 44 65 -5 18 -2 25 8 25 8 0 20 2 28 3 7 2 10 2 6 0 -5 -3 -8
-11 -8 -19 0 -9 -4 -12 -10 -9 -6 3 -7 -1 -4 -9 3 -9 10 -16 14 -16 4 0 10 -7
14 -15 3 -8 2 -14 -2 -14 -37 6 -45 -46 -13 -76 18 -15 23 -16 51 -4 19 9 35
26 42 46 7 20 16 29 25 26 8 -3 12 -8 9 -10 -3 -3 1 -12 9 -20 8 -8 15 -23 15
-34 0 -22 15 -25 34 -7 10 10 9 16 -5 32 -25 27 -16 33 11 8 22 -20 22 -21 4
-46 -16 -22 -25 -26 -64 -24 -40 3 -45 1 -44 -18 0 -16 -6 -20 -26 -20 -21 0
-26 4 -22 18 2 10 0 18 -6 18 -13 0 -22 -49 -10 -56 5 -3 4 -12 -3 -20 -7 -9
-8 -14 -1 -14 6 0 12 5 14 11 5 14 38 0 38 -17 0 -8 5 -14 12 -14 9 0 9 -3 0
-12 -7 -7 -42 -17 -80 -24 l-67 -12 78 -1 c55 -1 77 3 77 12 0 9 2 9 8 0 4 -7
44 -15 91 -19 l83 -7 -4 49 c-2 27 -7 54 -11 61 -4 6 -3 13 2 15 5 1 12 119
16 261 l7 257 -80 0 -81 0 -4 -42 -4 -43 -1 43 -2 43 -112 -3 -113 -3 -6 -35
-6 -35 -2 38 c-1 34 -3 37 -28 35 -16 -1 -68 -4 -118 -7z"/>
<path d="M8902 3849 c-7 -10 -20 -19 -30 -19 -9 -1 -28 -7 -42 -15 l-25 -13
30 -13 c26 -11 27 -13 9 -16 -18 -4 -22 -15 -32 -106 -15 -127 -15 -138 1
-134 7 1 13 -11 15 -33 4 -42 23 -87 51 -117 13 -14 21 -36 21 -58 0 -19 5
-35 10 -35 21 0 50 -41 51 -72 1 -31 1 -31 9 -8 7 24 7 24 18 -10 5 -19 11
-29 12 -22 4 31 2 129 -4 152 -3 14 -8 63 -10 109 -2 46 -8 86 -13 90 -4 3 -9
57 -11 120 -1 62 -6 119 -10 125 -3 6 -7 13 -7 16 -4 27 -18 71 -24 74 -4 3
-12 -4 -19 -15z"/>
<path d="M3820 3514 c-25 -8 -112 -32 -195 -54 -82 -22 -202 -53 -265 -71 -63
-17 -146 -39 -185 -50 -38 -10 -92 -25 -120 -33 -190 -54 -248 -70 -310 -86
-76 -20 -123 -33 -290 -80 -110 -31 -308 -84 -355 -96 -14 -3 -39 -12 -57 -20
-17 -8 -42 -14 -55 -14 -12 -1 -36 -6 -52 -13 -26 -11 -27 -14 -14 -28 12 -12
13 -19 4 -31 -15 -20 -8 -88 8 -88 6 0 4 -4 -4 -10 -22 -14 -6 -22 22 -11 15
6 50 6 84 2 33 -5 129 -6 214 -2 l155 6 -185 5 -185 6 225 4 225 4 -165 6
-165 6 205 0 c113 1 187 -2 165 -6 -25 -5 14 -8 109 -9 82 0 147 2 143 5 -3 3
-27 6 -53 6 -30 0 -43 3 -34 8 8 4 53 4 100 0 47 -4 76 -8 65 -9 -16 -2 -13
-5 10 -13 45 -15 425 -23 425 -9 0 6 7 11 16 11 14 0 14 -2 3 -16 -11 -14 -37
-15 -214 -10 -110 3 -222 8 -250 11 l-50 5 51 -14 c56 -16 454 -27 454 -13 0
5 9 6 20 2 15 -5 18 -3 14 9 -8 22 38 27 206 24 l145 -4 -162 -2 c-89 -1 -164
-5 -166 -9 -3 -5 15 -6 39 -4 36 2 44 0 44 -14 0 -14 -8 -16 -44 -14 -24 2
-42 2 -39 -1 2 -3 62 -6 131 -7 70 -1 285 -5 477 -8 193 -4 364 -7 380 -7 541
8 1274 2 1281 -9 13 -22 -15 -28 -152 -32 -77 -2 -145 -6 -150 -9 -25 -15 -81
-20 -192 -19 -68 1 -128 -1 -133 -5 -25 -15 22 -24 128 -24 96 0 112 -2 107
-15 -5 -11 1 -15 19 -15 14 0 27 -7 31 -15 3 -9 19 -15 41 -15 28 0 35 -4 35
-20 0 -11 -5 -20 -10 -20 -13 0 10 -38 28 -45 9 -3 11 1 7 14 -5 17 -1 20 25
19 40 -1 46 -13 18 -32 -12 -9 -19 -18 -16 -22 8 -7 129 -23 181 -24 l37 0 1
53 c0 28 4 79 8 112 5 40 4 62 -3 67 -8 6 -8 8 0 8 6 0 10 9 10 20 -1 10 4 20
9 22 6 2 11 -37 13 -99 l3 -103 119 0 120 0 0 108 c0 59 3 151 7 205 5 83 4
97 -9 97 -8 0 -80 18 -159 40 -182 51 -276 76 -519 140 -308 81 -440 116 -660
175 -113 31 -297 80 -410 111 -113 30 -222 61 -243 69 -44 18 -40 18 -97 -1z
m77 -165 l16 -42 19 27 c13 17 29 26 48 26 33 0 48 -16 31 -33 -8 -8 -11 -8
-11 1 0 7 -7 12 -15 12 -24 0 -18 -54 12 -113 16 -32 27 -69 27 -98 l1 -46 28
21 28 21 -25 22 c-22 18 -25 28 -22 63 5 49 27 76 67 85 23 5 41 0 78 -24 45
-29 81 -33 81 -10 0 14 27 11 33 -4 3 -7 -1 -21 -9 -32 -13 -18 -27 -20 -104
-14 -14 1 -33 -1 -42 -5 -14 -6 -18 -3 -18 13 0 22 -24 29 -35 10 -10 -15 3
-59 17 -59 6 0 19 7 29 16 14 12 22 13 39 4 24 -13 23 -46 -1 -44 -13 1 -13
-4 -5 -33 l11 -35 20 29 c65 92 135 129 228 120 39 -3 56 -11 88 -43 29 -28
39 -34 39 -21 0 23 26 33 45 17 23 -19 18 -45 -11 -59 -21 -9 -24 -14 -14 -26
14 -17 41 -9 33 11 -6 17 1 18 28 4 25 -14 24 -44 -3 -62 l-22 -15 27 -18 c17
-11 36 -15 52 -11 26 7 35 26 12 26 -20 0 -44 77 -30 98 17 28 82 20 110 -12
27 -31 29 -59 8 -100 -9 -16 -13 -31 -10 -34 9 -9 45 30 45 49 0 20 72 47 78
29 2 -6 25 -10 51 -10 37 0 57 -7 89 -29 22 -16 43 -34 47 -40 3 -6 18 -11 32
-11 14 0 31 -8 38 -17 12 -16 16 -16 74 0 94 26 186 20 167 -12 -12 -18 -77
-48 -121 -54 -49 -8 -165 30 -202 65 -23 21 -25 22 -34 6 -5 -10 -18 -22 -29
-28 -40 -22 -96 33 -68 67 20 24 -2 28 -40 8 -27 -15 -37 -27 -37 -45 0 -25
-28 -40 -39 -21 -4 6 -31 8 -70 4 -54 -5 -71 -2 -109 17 -26 13 -59 36 -74 52
-32 33 -40 35 -48 9 -3 -10 -14 -29 -25 -41 -11 -13 -20 -32 -20 -42 0 -16 -5
-19 -28 -13 -35 7 -57 -14 -49 -47 6 -22 6 -22 -14 2 -13 17 -17 33 -14 50 4
14 9 37 11 51 5 21 10 25 32 22 15 -3 35 2 45 9 22 16 47 86 39 108 -4 10 -9
2 -15 -23 -11 -43 -41 -63 -81 -53 -13 3 -28 15 -31 26 -4 11 -11 18 -16 15
-5 -4 -9 3 -9 13 0 23 21 34 41 21 27 -17 49 -10 49 16 0 29 -26 45 -72 45
-46 0 -64 -13 -43 -30 19 -16 19 -44 0 -60 -12 -10 -18 -10 -29 0 -12 9 -21 7
-45 -11 -34 -25 -42 -46 -11 -29 15 8 24 5 45 -17 14 -15 25 -36 25 -46 0 -46
-47 -84 -82 -65 -22 11 -25 43 -4 35 17 -7 40 18 31 33 -12 20 -41 9 -80 -31
-22 -23 -52 -47 -67 -55 -32 -17 -122 -18 -166 -3 -25 9 -37 7 -61 -7 -28 -17
-32 -17 -48 -2 -15 14 -32 16 -94 11 -91 -7 -123 6 -190 80 -50 55 -79 60 -79
11 0 -23 3 -26 25 -21 20 3 25 1 23 -12 -4 -23 -46 -26 -69 -5 -10 9 -19 30
-19 45 0 35 46 82 72 73 26 -8 22 2 -10 25 -25 17 -35 19 -65 10 -21 -5 -37
-16 -37 -24 0 -16 -38 -45 -58 -45 -22 0 -62 48 -62 75 0 33 -18 32 -26 -1
-17 -68 20 -140 68 -130 22 4 28 2 29 -12 0 -9 4 -38 8 -64 6 -39 5 -47 -8
-47 -9 0 -99 -1 -201 -2 l-185 -3 120 -6 120 -7 -148 2 c-96 1 -152 6 -159 13
-9 9 43 12 211 12 l222 0 -3 23 c-2 18 -8 22 -36 19 -20 -1 -31 2 -27 8 3 5
-6 27 -20 47 -14 21 -25 48 -25 61 0 21 -2 20 -32 -13 -59 -67 -127 -87 -223
-65 -26 6 -44 5 -52 -1 -17 -15 -36 -1 -30 22 4 15 -4 24 -35 40 l-41 21 7
-35 c6 -30 3 -38 -16 -51 -31 -22 -45 -20 -73 8 -22 22 -25 23 -37 8 -39 -47
-161 -71 -240 -48 -56 17 -96 41 -85 52 15 15 97 15 156 -1 59 -15 64 -15 81
0 11 10 27 14 37 11 13 -4 27 2 43 20 46 48 87 67 135 61 29 -3 42 -1 38 6 -4
6 8 7 33 3 46 -9 65 -23 45 -35 -10 -6 -5 -14 17 -30 l31 -21 -6 54 c-5 51 -4
57 25 85 17 17 40 31 52 31 30 0 60 -18 60 -35 0 -9 10 -15 26 -15 21 0 24 -3
15 -13 -15 -19 -3 -29 20 -16 25 13 24 26 -2 34 -32 11 -22 59 14 63 20 3 27
-1 27 -14 0 -13 12 -6 45 26 44 43 47 45 118 48 65 3 76 1 114 -24 23 -15 50
-43 60 -61 10 -18 20 -33 24 -33 11 0 19 45 9 48 -16 6 -11 44 7 58 29 20 9
26 -25 7 -25 -14 -34 -15 -56 -5 -26 12 -35 45 -16 57 6 3 10 -1 10 -9 0 -26
42 -18 80 14 68 59 140 29 140 -59 0 -41 -3 -49 -25 -59 -31 -14 -31 -22 -1
-44 l23 -17 6 49 c3 28 18 70 32 95 30 49 31 92 3 87 -11 -2 -18 3 -18 13 0
24 67 20 82 -5 18 -28 25 -25 38 15 6 19 16 35 21 35 5 0 17 -19 26 -41z"/>
<path d="M7455 3469 c-5 -5 -39 -30 -75 -57 -35 -26 -85 -66 -110 -89 -61 -58
-143 -124 -215 -174 -33 -23 -66 -50 -73 -60 -7 -10 -39 -34 -72 -54 -33 -20
-67 -46 -77 -59 -10 -12 -50 -43 -90 -69 -40 -26 -76 -53 -80 -60 -4 -6 -41
-33 -80 -60 -40 -26 -73 -49 -73 -50 0 -8 36 0 58 11 l22 13 0 -93 c0 -51 4
-99 8 -106 10 -15 112 -13 112 3 0 6 3 6 8 -1 4 -6 30 -11 57 -11 216 -2 265
-4 265 -13 0 -5 -25 -10 -55 -10 -30 0 -64 -6 -75 -12 -17 -11 -22 -10 -30 1
-23 37 -32 -129 -19 -344 30 -513 38 -633 43 -660 2 -16 6 -57 7 -90 l3 -60
-105 -1 c-57 -1 -364 -2 -681 -3 l-578 -1 0 -75 0 -76 293 1 c683 3 1983 21
3225 46 l322 7 0 593 c0 531 -2 594 -16 594 -9 0 -12 -5 -8 -12 4 -7 -8 1 -26
17 -33 30 -33 30 -26 5 9 -32 9 -36 8 -87 -2 -53 -21 -57 -23 -5 -1 27 -3 31
-6 12 -3 -14 -10 -28 -17 -32 -8 -6 -8 -8 1 -8 7 0 10 -7 7 -15 -4 -10 0 -15
15 -15 15 0 21 -6 21 -21 0 -19 -4 -21 -30 -15 -36 7 -41 -11 -5 -20 21 -5 25
-12 25 -44 0 -45 -17 -55 -77 -45 -30 5 -35 4 -23 -5 13 -10 13 -11 0 -7 -11
2 -14 14 -12 38 l4 34 -26 -24 c-14 -14 -26 -30 -26 -38 0 -7 -7 -13 -16 -13
-14 0 -15 -13 -11 -102 3 -57 11 -152 17 -212 6 -60 10 -119 7 -132 -2 -13 -1
-21 3 -19 4 2 10 -46 14 -107 11 -172 9 -166 70 -170 58 -3 -518 -16 -1009
-22 -181 -3 -307 -1 -280 2 l50 7 -3 85 c-1 47 -7 166 -12 265 -6 99 -9 200
-9 225 l1 45 8 -40 c5 -22 12 -87 16 -145 5 -58 10 -94 13 -80 4 20 6 15 12
-20 11 -83 10 100 -3 315 -13 225 -4 370 22 370 11 0 17 -15 21 -50 5 -41 7
-46 14 -27 6 18 10 20 16 10 7 -10 9 -8 9 6 0 12 5 16 15 12 17 -6 18 5 9 52
-6 27 -10 31 -34 28 -15 -2 -32 -6 -37 -9 -6 -4 -16 0 -22 7 -15 18 -4 25 44
28 31 3 37 7 42 31 3 15 10 27 15 27 5 0 7 4 4 9 -4 5 -22 5 -43 0 -21 -5 -67
-9 -102 -9 -52 0 -63 3 -53 13 10 9 76 13 241 15 l229 4 6 30 c3 17 6 45 6 62
0 48 10 74 31 79 34 9 20 25 -70 77 -49 28 -92 57 -94 64 -3 8 -41 34 -85 59
-44 25 -82 52 -85 60 -3 7 -41 35 -86 63 -45 27 -81 52 -81 56 0 4 -34 28 -75
53 -42 26 -81 55 -88 64 -7 9 -47 38 -89 65 -43 26 -78 51 -78 55 0 4 -22 20
-50 36 -34 21 -48 35 -45 46 5 14 -8 24 -55 46 -3 1 -9 -2 -15 -8z m59 -235
c9 -8 16 -13 16 -10 0 3 8 -1 18 -9 82 -68 233 -179 259 -192 18 -8 43 -25 55
-36 62 -57 317 -249 405 -305 24 -15 43 -32 43 -39 0 -9 -93 -13 -377 -15
-531 -4 -1263 2 -1263 10 0 10 106 92 118 92 6 0 12 4 14 8 3 7 43 39 153 122
18 14 50 39 71 57 22 18 78 60 126 95 109 79 279 208 296 225 18 18 47 16 66
-3z"/>
<path d="M7467 3179 c-10 -13 -17 -29 -17 -35 0 -6 -9 -14 -20 -17 -27 -7 -25
-34 3 -59 12 -11 16 -17 9 -13 -7 4 -24 4 -38 1 -33 -9 -32 -43 1 -52 14 -3
30 -14 35 -24 17 -31 11 -33 -20 -6 -17 14 -47 28 -68 31 -20 4 -52 11 -69 17
-28 8 -37 6 -68 -17 -26 -20 -34 -33 -30 -49 3 -11 1 -28 -5 -36 -8 -13 -11
-12 -23 4 -14 19 -15 18 -33 -10 -10 -16 -25 -34 -33 -40 -8 -7 -12 -21 -9
-37 4 -18 1 -27 -8 -27 -7 0 -18 -8 -23 -17 -6 -10 -11 -13 -11 -5 0 7 5 21
12 31 16 25 3 51 -25 51 -30 0 -47 -18 -47 -48 0 -15 -5 -22 -13 -19 -20 7
-90 -25 -133 -62 l-39 -33 38 5 c22 3 47 1 56 -5 27 -17 71 -2 71 23 0 17 4
20 23 15 59 -17 77 -17 108 -2 43 22 53 20 69 -8 21 -40 37 -39 57 4 20 44 32
46 51 6 12 -24 18 -26 45 -21 43 9 54 21 41 43 -8 13 -8 23 3 39 20 31 13 62
-20 87 -28 21 -29 21 -43 2 -8 -11 -14 -15 -14 -9 0 6 7 16 15 23 9 7 13 21
10 31 -4 13 -1 19 9 19 10 0 13 -6 10 -15 -4 -9 0 -15 10 -15 8 0 24 -10 35
-22 17 -17 23 -19 36 -8 12 10 15 10 15 -3 0 -8 2 -22 5 -30 4 -9 -1 -13 -17
-13 -30 1 -30 -26 -1 -39 13 -5 22 -14 20 -20 -1 -6 15 -29 36 -50 l38 -39 34
39 c19 22 32 46 30 53 -2 6 4 12 13 12 10 0 22 4 28 9 5 6 16 0 28 -17 17 -22
17 -25 3 -19 -13 5 -17 1 -17 -18 0 -19 7 -26 33 -33 37 -10 57 -5 57 14 0 28
29 13 51 -26 13 -22 25 -40 28 -40 3 0 17 18 30 39 l24 39 29 -21 c30 -22 97
-29 130 -13 12 5 18 2 23 -13 8 -26 50 -38 71 -20 9 8 31 12 48 11 l31 -3 -26
24 c-40 39 -88 60 -120 53 -25 -5 -29 -2 -29 18 0 12 -8 30 -18 39 -39 35 -94
8 -58 -28 18 -18 21 -45 6 -45 -5 0 -10 7 -10 15 0 8 -4 15 -10 15 -5 0 -10
13 -10 29 0 16 -6 31 -14 34 -8 3 -17 19 -21 36 -7 34 -45 45 -45 14 -1 -16
-2 -16 -15 1 -8 11 -12 28 -9 39 4 13 -5 28 -33 52 -21 18 -42 30 -48 25 -5
-4 -35 -10 -66 -13 -51 -5 -56 -4 -52 13 6 23 -25 41 -58 34 -23 -5 -23 -5 5
20 25 21 28 27 17 40 -8 9 -20 16 -27 16 -8 0 -14 6 -14 14 0 8 -8 24 -18 36
l-19 23 -16 -24z"/>
<path d="M1501 3345 c-6 -110 -6 -125 0 -125 3 0 5 -10 4 -22 -1 -13 0 -15 2
-5 5 21 50 23 76 3 23 -18 22 -32 -4 -39 -14 -4 -20 -11 -16 -21 3 -8 2 -18
-3 -21 -6 -4 -10 -15 -10 -26 0 -10 -4 -19 -10 -19 -5 0 -10 -4 -10 -10 0 -22
17 -6 59 56 41 61 44 69 42 126 -1 34 -4 65 -7 70 -8 13 -24 9 -24 -7 0 -8 3
-15 8 -15 4 0 6 -20 4 -44 -3 -36 -7 -43 -22 -39 -14 4 -17 12 -13 41 4 29 0
41 -16 56 -12 11 -21 25 -21 33 0 17 -20 17 -21 1 -1 -7 -5 1 -9 17 -7 29 -8
29 -9 -10z"/>
<path d="M9340 3175 c-19 -14 -41 -25 -50 -25 -12 0 -12 -2 -2 -9 10 -6 4 -12
-20 -20 -18 -7 -41 -17 -50 -22 -10 -5 -36 -9 -57 -9 -29 0 -48 -7 -68 -26
-25 -22 -25 -24 -3 -10 28 18 50 21 50 5 0 -5 -4 -8 -9 -4 -5 3 -11 -2 -13
-11 -2 -13 -20 -17 -83 -20 -113 -6 -235 -38 -135 -36 16 1 9 -4 -20 -13 l-45
-15 55 5 55 5 -40 -15 c-22 -9 -44 -17 -50 -18 -5 -1 -20 -12 -32 -24 -12 -13
-27 -23 -34 -23 -20 0 -49 -41 -49 -69 0 -25 1 -25 17 7 9 19 24 36 32 39 9 2
23 8 31 12 9 5 31 11 50 15 28 5 31 5 18 -4 -10 -6 -18 -20 -18 -31 0 -23 -18
-60 -34 -71 -8 -6 -6 -11 4 -17 12 -8 11 -14 -10 -37 -24 -26 -24 -26 -2 -15
37 19 24 -2 -22 -36 -49 -38 -62 -40 -71 -14 -7 22 -1 41 33 106 31 60 8 47
-38 -21 -37 -55 -47 -95 -42 -167 4 -62 22 -69 23 -9 0 29 2 33 8 17 9 -22 8
-63 -4 -114 -5 -24 -4 -31 4 -27 8 5 11 -13 11 -58 0 -38 4 -66 10 -66 7 0 8
39 4 113 -4 72 -3 108 3 102 13 -14 43 -144 43 -188 0 -30 -3 -34 -19 -30 -10
3 -22 0 -25 -6 -5 -7 2 -11 16 -11 43 0 68 -12 68 -31 0 -11 5 -19 11 -19 5 0
8 4 5 9 -4 5 -2 20 3 33 9 21 10 20 10 -11 1 -19 4 -31 8 -27 4 3 13 -4 20
-16 11 -21 12 -22 13 -3 0 14 3 16 8 8 4 -7 22 -16 40 -19 31 -6 32 -5 32 27
0 19 -7 42 -14 52 -8 10 -12 27 -9 37 3 11 1 20 -5 20 -6 0 -9 17 -7 43 2 23
7 78 10 121 2 43 10 84 15 91 6 7 10 17 9 21 -3 16 13 74 22 80 5 3 7 10 4 15
-4 5 -2 9 3 9 4 0 14 16 22 35 7 19 17 32 22 29 4 -3 5 2 1 11 -4 12 12 33 53
72 59 54 156 109 162 91 2 -5 10 -4 18 3 18 15 18 -1 2 -56 -6 -22 -10 -49 -9
-59 2 -13 -2 -17 -13 -13 -16 6 -32 -25 -21 -43 3 -6 -1 -13 -10 -16 -10 -4
-13 -13 -10 -25 9 -26 -13 -91 -37 -109 -16 -13 -17 -21 -9 -42 12 -33 76 -97
88 -89 5 3 9 24 8 46 0 22 3 47 7 55 4 8 9 27 12 41 3 14 15 36 27 50 15 16
20 18 16 7 -4 -10 -3 -18 2 -18 5 0 8 -12 7 -27 0 -16 5 -27 11 -26 8 2 9 -7
2 -29 -5 -17 -6 -34 -4 -37 3 -2 5 0 6 5 0 5 6 -9 13 -31 11 -38 12 -35 14 64
2 86 0 102 -12 98 -18 -7 -15 21 5 34 12 7 12 9 -1 9 -13 0 -13 1 0 10 8 5 10
10 5 10 -6 0 -11 9 -12 20 -1 11 3 20 8 20 6 0 8 12 4 29 -3 16 -6 48 -7 70 0
43 -4 47 -28 31 -10 -6 -11 -10 -2 -10 6 0 12 -4 12 -10 0 -5 -9 -10 -19 -10
-16 0 -19 6 -17 28 2 15 4 32 5 39 0 6 15 14 31 18 28 6 30 10 30 50 0 24 -4
47 -10 50 -5 3 -10 11 -10 16 0 6 5 7 10 4 6 -4 10 7 10 24 0 37 -5 37 -50 6z"/>
<path d="M1485 2917 c-65 -4 -121 -10 -124 -13 -10 -9 24 -24 56 -24 l31 0 -5
-147 c-5 -129 -8 -152 -29 -191 -27 -51 -31 -82 -9 -82 8 0 15 -4 15 -10 0 -5
7 -7 15 -4 8 4 13 10 10 14 -3 4 3 11 12 15 10 3 19 1 21 -4 6 -18 72 -14 72
4 0 8 5 15 10 15 6 0 10 5 10 11 0 7 -10 9 -27 4 l-28 -7 28 26 c15 14 31 36
36 48 9 25 36 330 30 344 -2 5 -55 6 -124 1z"/>
<path d="M0 2473 c0 -65 3 -84 11 -73 9 12 12 13 16 1 5 -11 7 -11 14 0 7 11
10 9 15 -8 l6 -22 29 21 c25 19 30 20 50 6 20 -13 24 -13 41 4 10 10 18 27 18
38 0 11 5 20 10 20 6 0 10 -4 10 -10 0 -5 10 -10 22 -10 20 0 20 1 5 18 -9 9
-29 32 -44 50 -27 32 -33 34 -101 37 -40 1 -76 5 -79 9 -18 17 -23 -2 -23 -81z"/>
<path d="M9050 2482 c0 -6 5 -12 12 -14 9 -3 9 -12 0 -38 -7 -18 -12 -59 -12
-91 0 -52 2 -59 20 -59 11 0 20 5 20 12 0 6 10 3 23 -8 12 -10 18 -14 14 -9
-6 6 11 16 45 26 50 16 53 19 60 55 3 22 2 43 -3 48 -9 10 -101 10 -133 0 -13
-4 -16 -3 -11 6 5 8 4 11 -2 7 -6 -4 -10 8 -9 30 1 21 -4 38 -11 40 -7 3 -13
0 -13 -5z"/>
<path d="M4640 2471 c0 -4 -15 -5 -34 -3 -18 2 -37 -1 -40 -7 -10 -15 -99 -14
-114 1 -9 9 -15 9 -24 0 -9 -9 -236 -12 -959 -12 l-946 0 6 -31 c7 -34 7 -34
336 -205 129 -66 195 -95 231 -99 42 -6 54 -12 63 -32 13 -29 14 -36 2 -29 -5
3 -9 0 -8 -7 1 -39 -4 -79 -10 -74 -3 4 -6 22 -5 41 1 29 -2 34 -18 33 -20 -1
-29 -27 -9 -27 6 0 8 -9 3 -22 -8 -29 -10 -31 -32 -33 -10 0 -28 -11 -41 -24
-16 -16 -31 -22 -51 -19 -16 2 -27 1 -25 -3 7 -10 -21 -30 -42 -29 -27 1 -85
-1 -113 -4 -14 -2 -26 -10 -28 -19 -2 -9 -8 -17 -13 -17 -11 0 -11 3 1 34 7
19 6 24 -4 20 -16 -6 -31 12 -40 49 -5 23 -3 27 15 27 25 0 21 18 -9 38 -19
13 -22 13 -22 -1 0 -8 -9 -17 -20 -20 -13 -3 -18 -11 -14 -20 3 -9 -3 -16 -17
-20 -30 -8 -39 -1 -39 29 0 16 -8 28 -25 36 -14 6 -25 15 -25 19 0 4 -12 6
-27 4 -16 -2 -33 1 -38 5 -22 18 -37 -9 -42 -74 -5 -62 -5 -66 16 -66 11 0 21
6 21 14 0 13 48 36 76 36 8 0 14 -8 14 -19 0 -26 25 -44 50 -36 17 5 21 3 20
-12 -4 -34 0 -44 13 -37 8 5 8 2 -2 -9 -7 -9 -20 -17 -27 -17 -8 0 -14 -5 -14
-11 0 -5 5 -7 10 -4 6 3 10 1 10 -4 0 -6 -9 -11 -20 -11 -11 0 -20 5 -20 10 0
6 -5 10 -11 10 -5 0 -8 -4 -4 -9 3 -5 -4 -16 -15 -24 -11 -7 -17 -17 -12 -22
4 -5 1 -5 -6 -1 -7 5 -11 14 -8 22 4 11 0 11 -19 -2 -14 -9 -25 -12 -25 -6 0
6 4 12 9 14 5 2 3 12 -5 22 -13 18 -14 16 -14 -26 l0 -46 -57 -8 -58 -9 1 -37
c1 -22 -3 -35 -9 -31 -5 3 -142 5 -304 4 -205 -2 -293 1 -288 8 3 7 44 11 96
11 l89 0 0 39 0 38 -126 2 -126 2 5 -73 c2 -40 3 -59 0 -43 -2 17 -7 37 -10
45 -3 8 -8 37 -10 63 -4 46 -4 48 16 38 86 -46 183 58 138 149 -15 29 -15 30
7 30 43 0 116 -13 116 -20 0 -4 -12 -5 -26 -2 -20 4 -25 1 -22 -9 7 -20 68
-19 69 1 0 8 2 23 4 33 3 15 -7 17 -107 17 l-109 0 21 -30 c12 -17 19 -30 16
-30 -15 0 -67 60 -69 79 -1 12 -4 21 -8 21 -4 0 -14 3 -23 6 -12 4 -16 0 -16
-15 0 -12 5 -21 10 -21 6 0 10 -5 10 -11 0 -7 -9 -9 -24 -5 -13 3 -26 2 -28
-3 -2 -5 -15 -7 -30 -4 -18 3 -25 10 -21 19 4 10 0 12 -11 8 -32 -12 -30 -63
5 -94 20 -18 34 -70 19 -70 -6 0 -8 -5 -4 -12 4 -6 8 -35 9 -65 1 -29 -2 -48
-6 -42 -6 11 -23 -97 -18 -116 3 -9 -4 -79 -16 -176 -3 -23 1 -28 27 -33 73
-15 71 -19 64 112 -4 64 -9 140 -11 167 -4 42 -3 45 5 20 5 -16 12 -81 15
-145 4 -63 9 -126 12 -140 5 -23 6 -24 13 -5 7 17 9 17 9 3 1 -14 10 -18 35
-18 l34 0 7 65 7 65 234 0 234 0 0 31 c0 29 1 30 33 24 40 -9 37 -5 42 -51 4
-37 4 -37 -5 -9 -7 24 -9 18 -6 -31 2 -34 0 -67 -4 -75 -5 -7 -4 -22 2 -32 5
-11 6 -17 1 -14 -6 4 -15 -66 -22 -171 -6 -97 -16 -244 -22 -327 -6 -82 -10
-184 -9 -225 1 -41 1 -77 0 -80 0 -3 -3 -50 -5 -105 -3 -55 -7 -113 -10 -130
-3 -16 -7 -73 -10 -125 -3 -52 -7 -119 -10 -147 l-5 -53 695 0 695 0 0 21 c0
12 5 19 13 16 6 -2 11 -11 9 -21 -3 -15 52 -16 686 -16 l689 0 6 488 c10 684
9 922 -3 922 -6 0 -6 9 0 26 6 14 10 42 10 62 l0 37 242 0 c235 0 243 1 246
20 2 11 8 29 13 41 6 11 9 34 7 50 l-3 29 -245 -4 c-135 -1 -248 -5 -252 -8
-5 -2 -8 1 -8 6 0 8 69 11 211 11 l210 0 -4 223 c-7 314 -9 338 -32 365 -11
12 -25 22 -32 22 -9 0 -13 15 -13 46 0 28 -6 51 -16 61 -10 11 -14 28 -12 50
l4 33 -368 -1 c-202 -1 -368 -5 -368 -8z m-1604 -688 c-3 -71 -9 -194 -12
-275 l-7 -148 -35 0 -35 0 7 188 c11 302 15 342 40 352 49 20 49 19 42 -117z
m-183 -35 c-3 -40 -11 -76 -17 -80 -8 -6 -7 -10 2 -17 9 -5 12 -20 8 -42 -7
-43 -18 -187 -17 -216 1 -19 -5 -23 -29 -23 l-30 0 3 127 c2 86 7 128 15 131
7 2 10 8 6 13 -3 5 0 9 5 9 17 0 13 52 -6 65 -9 7 -13 17 -9 23 10 17 26 15
26 -4 0 -8 5 -12 11 -9 6 4 7 19 4 35 -6 28 12 73 26 64 4 -2 5 -37 2 -76z
m-336 -42 c-4 -10 0 -12 14 -9 10 3 19 9 19 14 0 5 4 9 9 9 16 0 18 -33 5 -72
-8 -22 -9 -38 -4 -38 6 0 10 -4 10 -10 0 -5 -7 -10 -15 -10 -14 0 -45 -48 -45
-68 0 -6 7 -13 16 -16 12 -5 14 -1 9 15 -6 19 -5 20 15 9 15 -8 19 -16 14 -28
-4 -9 -7 -30 -7 -45 0 -20 -3 -24 -8 -15 -7 10 -9 9 -9 -4 0 -9 5 -20 10 -23
8 -5 7 -11 -1 -21 -9 -11 -8 -14 2 -15 8 0 3 -5 -10 -10 -32 -13 -51 -5 -51
20 0 13 5 18 14 15 9 -3 17 6 24 25 12 33 5 39 -17 19 -11 -10 -13 -10 -7 0 4
6 3 12 -2 12 -6 0 -8 40 -5 103 2 56 4 114 4 130 0 15 5 27 10 27 6 0 9 -6 6
-14z m193 -82 c-14 -37 -12 -48 6 -30 13 14 17 14 30 2 19 -20 18 -55 -2 -63
-15 -6 -15 -7 -2 -17 13 -9 15 -26 10 -84 -5 -72 -5 -73 -31 -70 -21 2 -27 9
-29 36 -7 64 -7 188 0 217 3 17 7 34 7 38 1 5 5 6 11 2 6 -4 6 -15 0 -31z
m301 -349 l-3 -68 26 5 26 5 -26 -34 c-28 -36 -27 -35 -33 -235 -1 -48 -1 -48
-36 -48 l-35 0 0 53 c0 30 3 109 7 175 4 92 9 122 20 122 7 0 13 5 13 10 0 6
-7 10 -15 10 -9 0 -15 9 -15 24 0 45 10 57 44 53 l31 -4 -4 -68z m-81 15 c0
-16 -7 -20 -36 -20 -21 0 -33 -4 -29 -10 4 -6 11 -8 16 -5 5 4 17 4 27 1 19
-6 19 -18 6 -253 l-6 -103 -33 0 c-19 0 -36 3 -38 8 -2 4 -1 51 2 105 3 55 4
102 1 105 -3 4 -13 8 -24 10 -14 3 -17 -1 -13 -12 4 -9 2 -16 -4 -16 -6 0 -7
-5 -4 -10 4 -6 10 -8 15 -5 4 3 10 -4 13 -15 6 -22 -8 -37 -18 -20 -4 6 -11 7
-17 4 -7 -4 -8 -2 -4 4 4 7 2 20 -3 29 -7 13 -10 14 -11 4 0 -8 -3 -11 -6 -8
-4 4 -1 14 6 23 12 13 11 17 -1 25 -11 7 -10 9 5 9 10 0 27 9 37 21 10 11 22
18 27 15 24 -14 22 90 -1 106 -6 3 5 11 24 16 54 16 69 14 69 -8z m1060 -22
c0 -9 4 -8 10 2 9 13 10 13 10 0 0 -9 -4 -20 -10 -26 -5 -5 -12 -82 -16 -172
l-7 -162 -34 0 -33 0 0 155 c0 143 2 157 21 176 15 15 24 18 34 9 11 -9 12 -7
8 9 -3 12 -1 21 6 21 6 0 11 -6 11 -12z m-1440 -18 c0 -5 -8 -11 -17 -11 -17
-1 -17 -2 0 -6 14 -4 17 -17 17 -81 0 -42 -3 -114 -7 -160 -6 -78 -7 -82 -27
-76 -30 9 -32 13 -11 28 22 16 11 39 -15 31 -24 -8 -28 1 -31 63 -2 31 -6 49
-12 45 -6 -4 -8 1 -4 13 7 18 6 18 -8 -1 -14 -18 -14 -20 -1 -23 18 -4 23 -87
6 -97 -6 -4 -8 -10 -5 -15 3 -5 -5 -10 -17 -12 -16 -2 -22 -9 -20 -20 2 -11
-3 -18 -14 -18 -13 0 -15 7 -10 43 3 23 8 99 12 170 6 117 8 127 26 127 29 0
53 -27 39 -44 -8 -10 -8 -21 -1 -41 6 -15 8 -30 6 -34 -3 -4 -1 -13 5 -21 9
-16 14 21 10 88 -1 26 2 32 19 32 12 0 19 4 15 9 -3 5 5 12 17 14 13 2 24 5
26 6 1 0 2 -3 2 -9z m190 3 c0 -15 -33 -93 -39 -93 -4 0 -8 -12 -9 -27 -2 -28
-2 -28 14 4 9 18 20 30 25 27 11 -7 7 -67 -5 -76 -6 -4 -5 -12 2 -21 10 -11 9
-17 -3 -27 -13 -11 -13 -15 -3 -22 10 -7 10 -11 -4 -20 -15 -11 -15 -13 0 -25
14 -11 14 -13 2 -11 -11 2 -15 -6 -15 -26 0 -16 -6 -31 -13 -33 -8 -3 -10 2
-6 14 5 17 5 17 -9 1 -23 -28 -29 -21 -27 30 1 26 1 70 0 97 l-2 50 -9 -40
c-4 -22 -8 -66 -8 -98 l-1 -58 -37 3 -38 3 3 110 c4 145 11 206 25 204 33 -4
46 2 41 19 -5 16 -5 16 6 0 6 -10 11 -33 12 -53 1 -42 13 -46 24 -7 8 30 8 30
-1 54 -5 13 0 18 22 21 49 7 53 7 53 0z m1146 -139 c1 -76 -1 -154 -3 -171 -5
-30 -8 -33 -40 -33 l-35 0 4 125 c4 85 10 130 19 142 9 11 10 14 2 9 -8 -4
-13 -2 -13 8 0 21 21 31 31 15 6 -10 9 -4 9 19 0 23 4 32 13 29 9 -3 12 -41
13 -143z m148 90 c0 -10 -4 -30 -8 -44 -6 -19 -5 -22 4 -14 21 21 49 5 48 -27
-1 -16 -6 -29 -12 -29 -6 0 -5 -4 3 -9 11 -7 12 -25 7 -84 -7 -66 -10 -76 -29
-81 -50 -13 -50 -13 -43 92 4 53 6 126 6 161 -1 48 2 62 12 59 7 -3 13 -14 12
-24z m-369 -151 c-4 -93 -11 -172 -17 -178 -11 -12 -48 29 -48 54 0 9 -10 35
-22 59 l-23 42 21 43 c31 59 35 75 22 83 -12 7 47 64 65 64 6 0 7 -68 2 -167z
m-769 -261 c8 -5 9 -43 4 -128 -7 -124 -15 -158 -31 -133 -6 9 -9 10 -9 2 0
-6 -3 -18 -6 -27 -4 -11 0 -16 12 -17 17 -1 17 -2 2 -6 -10 -2 -18 -13 -18
-24 0 -14 -5 -19 -17 -17 -14 3 -17 12 -16 37 2 35 -12 32 -19 -3 -4 -24 -28
-34 -28 -12 0 10 -6 14 -17 10 -14 -4 -13 -2 2 7 11 6 21 12 22 13 0 1 4 17 8
37 7 36 6 37 -24 33 -29 -3 -31 -2 -21 16 6 11 17 20 24 20 16 0 46 -42 47
-67 1 -10 4 -5 8 12 4 20 14 31 31 36 14 4 19 7 13 8 -10 1 -13 28 -13 100 0
70 4 101 13 104 17 8 21 8 33 -1z"/>
<path d="M321 2373 c-1 -22 -6 -33 -16 -33 -9 0 -21 -11 -27 -25 -12 -27 -24
-32 -31 -12 -4 10 -6 10 -6 0 -1 -7 -7 -13 -15 -13 -17 0 -31 -33 -17 -38 19
-6 13 -43 -6 -40 -15 3 -18 -5 -19 -47 0 -64 -20 -96 -52 -84 -24 9 -30 21 -9
18 25 -3 38 1 32 11 -3 6 -17 10 -30 10 -24 0 -25 2 -20 57 3 32 7 71 10 88 6
35 -2 50 -32 59 -19 6 -23 3 -23 -12 0 -11 -3 -34 -7 -52 -4 -24 -3 -31 5 -26
7 4 12 20 12 37 0 16 5 29 11 29 12 0 7 -118 -7 -190 -11 -55 -25 -32 -20 33
3 34 3 54 0 44 -3 -9 -9 -15 -14 -12 -4 3 -6 -4 -3 -14 3 -13 -2 -21 -16 -26
-29 -9 -29 -50 0 -52 30 -3 50 -23 23 -23 -43 0 -44 -9 -44 -337 l0 -312 53 2
c28 1 262 -2 519 -7 l468 -8 0 61 c0 48 3 61 15 61 12 0 15 -13 15 -60 l0 -60
206 0 205 0 -6 105 c-4 71 -3 105 4 105 11 0 16 -30 14 -80 l-1 -25 10 23 c8
16 8 33 1 56 -7 24 -7 41 2 62 7 16 18 112 25 212 10 129 17 182 26 182 6 0
15 -7 18 -16 5 -13 9 -14 21 -4 19 16 19 25 -1 44 -16 17 -35 21 -33 9 3 -19
-3 -22 -25 -13 -21 7 -26 6 -31 -10 -8 -26 -27 -25 -45 0 -19 26 -34 25 -53
-4 -18 -26 -13 -36 15 -36 12 0 17 -5 14 -12 -3 -7 -9 -21 -12 -30 -7 -20 -20
-23 -29 -8 -5 8 -11 8 -20 0 -9 -8 -14 -8 -17 1 -2 6 -12 -1 -22 -17 -22 -34
-56 -68 -56 -57 0 4 -4 2 -9 -6 -7 -11 -13 -10 -35 4 -14 10 -26 22 -26 27 0
5 -5 6 -10 3 -6 -4 -10 11 -11 37 -1 24 -2 48 -4 53 -1 6 -3 15 -3 22 -1 7
-10 10 -19 7 -13 -4 -11 0 5 12 12 9 22 23 22 32 0 12 -5 11 -23 -6 -29 -27
-45 -16 -44 30 0 21 4 33 8 27 4 -6 18 3 35 24 16 19 39 40 52 46 12 6 22 18
22 27 0 13 52 32 72 26 4 -1 10 9 14 23 3 14 10 25 15 25 5 0 9 7 9 15 0 8 -7
15 -15 15 -8 0 -15 6 -15 14 0 8 -6 17 -12 19 -7 3 -3 6 9 6 50 2 28 19 -30
23 -34 3 -63 2 -65 -1 -1 -3 -91 -5 -200 -4 -195 3 -247 -1 -238 -15 2 -4 -17
-7 -42 -8 -26 0 -39 1 -29 3 38 9 3 23 -58 23 -49 0 -66 -4 -73 -17 -9 -14
-10 -14 -16 5 -9 27 -34 28 -75 5 -26 -15 -33 -16 -40 -4 -7 11 -11 10 -22 -7
-12 -19 -14 -19 -26 -4 -11 16 -12 16 -13 0 0 -10 -3 -18 -6 -18 -4 0 -13 8
-20 18 -11 14 -15 15 -23 3 -7 -11 -10 -9 -14 10 -3 19 -5 18 -6 -8z m204 -92
c-4 -11 -13 -145 -28 -421 -2 -43 -4 -45 -32 -44 -17 0 -32 -3 -35 -6 -9 -13
-45 -20 -59 -11 -12 8 -13 24 -3 98 10 79 9 89 -6 102 -15 12 -15 12 6 6 20
-6 22 -3 22 29 0 20 5 36 10 36 6 0 10 39 10 96 0 122 5 132 70 130 38 -1 49
-4 45 -15z"/>
<path d="M2689 2159 c-14 -27 -50 -40 -68 -25 -11 9 -13 7 -7 -12 6 -18 4 -25
-11 -28 -11 -3 -19 -15 -20 -27 0 -12 1 -16 4 -9 7 18 40 15 52 -5 7 -13 10
-14 11 -4 0 10 9 12 38 8 25 -4 32 -3 22 3 -20 12 0 33 23 24 12 -4 15 -13 11
-31 -5 -17 0 -31 14 -46 12 -12 21 -25 21 -29 2 -16 38 -43 61 -46 23 -2 24
-2 6 9 -40 25 -87 80 -83 97 3 12 5 11 6 -5 0 -13 7 -23 16 -23 18 0 33 52 17
58 -7 2 -12 13 -13 25 0 21 -1 21 -9 2 -8 -19 -9 -19 -9 3 -1 12 4 22 9 22 6
0 10 7 10 16 0 8 4 13 9 9 5 -3 12 -1 15 4 4 5 2 12 -3 15 -5 4 -13 1 -17 -5
-5 -9 -11 -7 -21 6 -7 11 -13 14 -13 8 0 -8 -9 -9 -30 -3 -25 7 -32 5 -41 -11z"/>
<path d="M0 1337 l0 -65 153 -6 c218 -9 1638 -29 1643 -23 3 3 6 34 7 69 l2
63 -355 6 c-195 4 -601 10 -902 14 l-548 8 0 -66z"/>
<path d="M5134 1325 c2 -42 5 -78 7 -80 4 -3 259 -8 302 -6 15 1 17 12 17 81
l0 80 -165 0 -165 0 4 -75z"/>
<path d="M1880 1310 l0 -80 154 0 c175 0 166 -6 166 96 l0 51 -107 6 c-58 4
-130 7 -160 7 l-53 0 0 -80z"/>
</g>
</svg>
