<?xml version="1.0" standalone="no"?><svg xmlns="http://www.w3.org/2000/svg" viewBox="0 0 1440 320"><path fill="#eeeeee" fill-opacity="1" d="M0,320L0,256L102.9,256L102.9,128L205.7,128L205.7,256L308.6,256L308.6,96L411.4,96L411.4,288L514.3,288L514.3,0L617.1,0L617.1,224L720,224L720,32L822.9,32L822.9,256L925.7,256L925.7,64L1028.6,64L1028.6,256L1131.4,256L1131.4,160L1234.3,160L1234.3,256L1337.1,256L1337.1,32L1440,32L1440,320L1337.1,320L1337.1,320L1234.3,320L1234.3,320L1131.4,320L1131.4,320L1028.6,320L1028.6,320L925.7,320L925.7,320L822.9,320L822.9,320L720,320L720,320L617.1,320L617.1,320L514.3,320L514.3,320L411.4,320L411.4,320L308.6,320L308.6,320L205.7,320L205.7,320L102.9,320L102.9,320L0,320L0,320Z"></path></svg>