<!-- Generated by IcoMoon.io -->
<svg version="1.1" xmlns="http://www.w3.org/2000/svg" width="28" height="28" viewBox="0 0 28 28">
<title>random</title>
<path d="M10.406 7.516c-0.875 1.344-1.516 2.797-2.141 4.266-0.906-1.891-1.906-3.781-4.266-3.781h-3.5c-0.281 0-0.5-0.219-0.5-0.5v-3c0-0.281 0.219-0.5 0.5-0.5h3.5c2.781 0 4.828 1.297 6.406 3.516zM28 20c0 0.125-0.047 0.266-0.141 0.359l-5 5c-0.094 0.094-0.234 0.141-0.359 0.141-0.266 0-0.5-0.234-0.5-0.5v-3c-4.641 0-7.5 0.547-10.391-3.516 0.859-1.344 1.5-2.797 2.125-4.266 0.906 1.891 1.906 3.781 4.266 3.781h4v-3c0-0.281 0.219-0.5 0.5-0.5 0.141 0 0.266 0.063 0.375 0.156l4.984 4.984c0.094 0.094 0.141 0.234 0.141 0.359zM28 6c0 0.125-0.047 0.266-0.141 0.359l-5 5c-0.094 0.094-0.234 0.141-0.359 0.141-0.266 0-0.5-0.219-0.5-0.5v-3h-4c-2.078 0-3.063 1.422-3.938 3.109-0.453 0.875-0.844 1.781-1.219 2.672-1.734 4.031-3.766 8.219-8.844 8.219h-3.5c-0.281 0-0.5-0.219-0.5-0.5v-3c0-0.281 0.219-0.5 0.5-0.5h3.5c2.078 0 3.063-1.422 3.938-3.109 0.453-0.875 0.844-1.781 1.219-2.672 1.734-4.031 3.766-8.219 8.844-8.219h4v-3c0-0.281 0.219-0.5 0.5-0.5 0.141 0 0.266 0.063 0.375 0.156l4.984 4.984c0.094 0.094 0.141 0.234 0.141 0.359z"></path>
</svg>
